<?xml version="1.0" standalone="no"?>
<!DOCTYPE svg PUBLIC "-//W3C//DTD SVG 20010904//EN"
 "http://www.w3.org/TR/2001/REC-SVG-20010904/DTD/svg10.dtd">
<svg version="1.0" xmlns="http://www.w3.org/2000/svg"
 width="900.000000pt" height="363.000000pt" viewBox="0 0 900.000000 363.000000"
 preserveAspectRatio="xMidYMid meet">
<metadata>
Created by potrace 1.10, written by Peter Selinger 2001-2011
</metadata>
<g transform="translate(0.000000,363.000000) scale(0.100000,-0.100000)"
fill="#000000" stroke="none">
<path d="M5145 3570 c-385 -4 -1195 -8 -1800 -9 -605 -1 -1149 -6 -1210 -11
-209 -17 -300 -28 -328 -39 -16 -6 -42 -11 -59 -11 -17 0 -54 -6 -82 -14 -53
-15 -125 -33 -186 -46 -33 -8 -50 -13 -140 -45 -67 -24 -195 -80 -235 -102
-22 -12 -62 -34 -90 -48 -27 -14 -59 -32 -70 -38 -11 -7 -43 -25 -70 -41 -92
-54 -249 -179 -340 -271 -85 -86 -245 -275 -245 -289 0 -4 -11 -22 -24 -39
-36 -48 -106 -191 -136 -277 -33 -97 -75 -270 -101 -420 l-22 -126 22 -97 c11
-54 21 -109 21 -124 0 -29 18 -96 57 -213 13 -41 28 -88 32 -105 10 -38 87
-195 125 -255 32 -49 106 -148 146 -195 121 -141 336 -326 469 -404 133 -79
331 -181 349 -181 6 0 23 -6 39 -14 98 -49 331 -112 548 -146 92 -15 5111 -8
5230 7 44 6 105 16 135 22 30 7 89 19 130 27 282 58 495 140 730 283 19 11 44
25 55 31 48 25 150 103 269 206 122 105 268 279 363 430 29 46 113 229 113
245 0 6 6 25 14 42 22 52 51 168 67 267 5 36 17 97 26 135 16 73 15 116 -6
220 -7 33 -19 94 -27 135 -21 106 -40 169 -90 303 -28 72 -86 191 -110 224
-13 17 -24 35 -24 38 0 10 -120 161 -181 229 -195 214 -309 299 -629 468 -76
40 -223 101 -285 118 -16 5 -43 13 -60 19 -57 19 -160 43 -360 81 -33 7 -98
16 -145 22 -114 12 -1025 16 -1885 8z m1883 -205 c121 -18 247 -41 307 -57 22
-6 58 -14 80 -18 22 -5 56 -13 75 -20 285 -99 481 -204 675 -361 135 -109 262
-246 361 -389 37 -53 124 -230 135 -274 4 -17 12 -44 17 -61 36 -107 35 -100
62 -275 37 -234 -62 -620 -218 -849 -129 -189 -332 -388 -502 -492 -89 -55
-93 -57 -145 -85 -27 -14 -61 -34 -75 -44 -14 -10 -65 -34 -115 -55 -84 -35
-106 -43 -195 -75 -19 -7 -53 -15 -75 -20 -22 -4 -58 -12 -80 -18 -48 -13
-167 -36 -295 -58 -81 -13 -314 -17 -1590 -29 -822 -8 -1920 -14 -2440 -15
-993 0 -1030 1 -1227 46 -34 8 -72 14 -84 14 -12 0 -47 7 -78 16 -31 8 -81 22
-111 31 -116 32 -337 127 -430 183 -8 5 -51 30 -95 56 -130 75 -255 179 -380
315 -194 211 -288 397 -360 711 -23 100 -20 331 5 444 25 112 45 187 59 213 6
11 11 27 11 36 0 20 84 192 105 215 8 9 15 20 15 24 0 15 132 177 213 262 95
101 252 226 342 274 22 12 67 37 100 56 124 70 287 142 370 163 17 4 40 13 52
19 12 7 32 12 44 12 12 0 45 6 73 14 166 47 366 74 581 80 99 3 666 9 1260 12
594 4 1082 8 1084 10 2 2 535 4 1183 4 1006 0 1195 -2 1286 -15z"/>
<path d="M6740 2942 c-140 -52 -210 -148 -210 -287 0 -63 5 -84 28 -126 32
-61 98 -122 160 -149 58 -26 168 -27 237 -3 76 27 156 111 183 192 12 36 22
75 22 88 0 49 -45 158 -79 192 -98 98 -229 134 -341 93z m234 -100 c22 -15 53
-45 68 -67 24 -35 27 -50 28 -115 0 -67 -3 -79 -31 -120 -38 -56 -78 -83 -146
-99 -68 -17 -142 -1 -198 43 -55 42 -62 53 -81 116 -14 47 -15 61 -4 105 21
84 86 149 165 167 60 13 156 -1 199 -30z"/>
<path d="M6728 2803 c-16 -4 -18 -20 -18 -144 l0 -139 26 -10 c40 -16 73 -12
86 10 15 23 38 27 38 5 0 -26 37 -38 65 -19 30 20 31 26 5 49 -25 23 -25 33 0
60 27 28 36 86 20 124 -21 51 -140 86 -222 64z m139 -157 c-10 -25 -37 -19
-37 7 0 13 3 27 7 31 11 11 36 -21 30 -38z"/>
<path d="M5835 2463 c-27 -8 -63 -21 -78 -29 -16 -8 -33 -14 -39 -14 -17 0
-123 -87 -149 -122 -69 -93 -94 -225 -65 -353 29 -129 83 -205 226 -320 112
-91 160 -155 160 -215 -1 -79 -75 -109 -196 -79 -75 19 -76 14 -15 -221 l17
-65 49 -12 c109 -25 308 -10 375 28 87 49 142 105 176 179 23 49 25 65 22 145
-3 77 -8 99 -36 155 -18 36 -41 79 -52 95 -31 49 -60 116 -60 140 0 59 75 101
151 84 70 -16 69 -20 58 277 -5 144 -13 273 -18 286 -7 20 -22 26 -92 41 -108
22 -360 22 -434 0z"/>
<path d="M1976 2442 c-3 -5 26 -69 64 -143 38 -74 80 -156 94 -184 14 -27 41
-77 61 -110 19 -33 38 -67 42 -75 4 -8 42 -73 85 -145 43 -71 78 -140 78 -151
0 -12 -8 -32 -18 -45 -10 -13 -22 -31 -25 -39 -4 -8 -17 -31 -28 -50 -180
-299 -259 -436 -259 -450 0 -12 369 -14 386 -2 13 9 144 231 144 244 0 5 8 8
17 6 14 -3 71 -87 104 -153 5 -11 18 -33 29 -50 11 -16 23 -36 26 -42 8 -17
419 -19 429 -3 4 6 -64 151 -149 322 -86 171 -156 315 -156 320 0 4 12 27 27
51 15 23 32 50 38 59 5 10 47 77 91 150 90 147 111 184 192 338 30 58 59 111
64 117 6 7 8 20 4 28 -5 13 -40 15 -241 15 l-236 0 -30 -67 c-50 -114 -86
-178 -99 -178 -11 0 -31 43 -50 110 -11 38 -31 96 -40 115 -6 13 -54 15 -323
18 -174 1 -318 -1 -321 -6z"/>
<path d="M3726 2441 c-7 -11 154 -330 245 -486 19 -33 38 -67 42 -75 4 -8 16
-28 27 -45 11 -16 24 -39 30 -50 6 -11 19 -33 30 -50 30 -48 50 -87 50 -101 0
-7 -31 -63 -68 -126 -38 -62 -72 -120 -76 -128 -8 -17 -21 -39 -59 -98 -15
-23 -37 -59 -48 -80 -11 -20 -29 -50 -40 -67 -27 -44 -40 -75 -33 -86 3 -5 91
-9 195 -9 187 0 190 0 199 23 6 12 19 36 30 52 11 17 24 39 30 50 62 120 99
152 120 103 6 -13 16 -32 23 -43 7 -11 33 -57 60 -103 l48 -82 219 0 c205 0
220 1 220 18 0 10 -4 22 -10 28 -16 16 -300 588 -300 604 0 9 15 38 33 66 19
28 37 57 40 65 4 8 15 26 25 41 127 197 326 563 316 580 -3 4 -113 8 -245 8
l-239 0 -36 -77 c-19 -43 -40 -85 -45 -93 -10 -16 -16 -30 -24 -55 -2 -8 -13
-15 -23 -15 -15 0 -27 23 -59 118 l-39 117 -316 3 c-180 1 -319 -2 -322 -7z"/>
</g>
</svg>
